<svg xmlns="http://www.w3.org/2000/svg" viewBox="0 0 82.03 55.59"><defs><style>.cls-1{fill:#1d1d1b;}</style></defs><title>Ресурс 4</title><g id="Слой_2" data-name="Слой 2"><g id="Слой_1-2" data-name="Слой 1"><path class="cls-1" d="M0,0H.47V39.38H0ZM2.44,45H6.84v1.22H2.16v8.16H5.63V50.91H4.41V49.69H6.84v4.78q-.23,1.13-1.12,1.13H2.06Q.94,55.36.94,54.47V46.22Q.94,45.19,2.44,45ZM3.75,0H5.63V39.38H3.75ZM7,0H7.5V39.38H7Z"/><path class="cls-1" d="M7.45,0h.47V39.38H7.45Zm.94,45H9.61v9.38h3.47V45H14.3v9.47q-.23,1.13-1.12,1.13H9.52q-1.12-.23-1.12-1.12ZM9.7,0h.94V39.38H9.7Zm1.41,0H13V39.38H11.11Zm3.38,0H15V39.38h-.47Z"/><path class="cls-1" d="M14.91,0h1.41V39.38H14.91Zm.94,44.91h1.22v3.56h1.22v1.13h1V48.47h1.22V44.91h1.22v3.66H20.63v1.13H19.41v5.91h-1a.17.17,0,0,1-.19-.19V49.69h-1A.17.17,0,0,1,17,49.5v-.94H16a.17.17,0,0,1-.19-.19ZM18,0h.94V39.38H18Zm3,0h1.41V39.38H21Z"/><path class="cls-1" d="M29.81,0h.47V39.38h-.47Zm.94,0h.94V39.38h-.94Zm0,45H32v1.13h1q.19,0,.19.19v1h1.13v1.13h1.13V45h1.22V55.59H35.44V49.78h-1a.17.17,0,0,1-.19-.19v-1H33.09V47.44H32v8.16H30.75ZM33.47,0h.94V39.38h-.94Zm1.31,0h.47V39.38h-.47Zm1.59,0h.94V39.38h-.94Z"/><path class="cls-1" d="M37.27,0h.47V39.38h-.47Zm.94,45h1.22v9.38h3.47V45h1.22v9.47q-.23,1.13-1.12,1.13H39.33q-1.12-.23-1.12-1.12ZM39.52,0h.94V39.38h-.94Zm1.41,0H42.8V39.38H40.92ZM44.3,0h.47V39.38H44.3Z"/><path class="cls-1" d="M44.72,0h.47V39.38h-.47Zm1,45H47v9.38h4.69v1.22H45.75ZM47.81,0h1.78V39.38H47.81Zm3.09,0h1.31V39.38H50.91Z"/><path class="cls-1" d="M52.17,0h.47V39.38h-.47Zm1,45h1.22v9.38h4.69v1.22H53.2ZM55.27,0H57V39.38H55.27Zm3.09,0h1.31V39.38H58.36Z"/><path class="cls-1" d="M67.08,0h.47V39.38h-.47ZM68,0H69V39.38H68Zm0,45h6v1.22H71.67v8.16H74v1.22H68V54.38h2.34V46.22H68ZM70.83,0h.94V39.38h-.94Zm2.34,0h1.41V39.38H73.17Z"/><path class="cls-1" d="M74.53,0H75V39.38h-.47Zm.94,0h.94V39.38h-.94Zm0,45h1.22v1.13h1q.19,0,.19.19v1H79v1.13h1.13V45h1.22V55.59H80.16V49.78h-1a.17.17,0,0,1-.19-.19v-1H77.81V47.44H76.69v8.16H75.47ZM78.19,0h.94V39.38h-.94ZM79.5,0H80V39.38H79.5Zm1.59,0H82V39.38h-.94Z"/></g></g></svg>